<svg id="图层_1" data-name="图层 1" xmlns="http://www.w3.org/2000/svg" viewBox="0 0 533.31 374.73"><defs><style>.cls-1,.cls-2{fill:#fff;}.cls-2{isolation:isolate;font-size:110px;font-family:Arial-ItalicMT, Arial;font-style:italic;}</style></defs><title>logo-white-big-20180623</title><path id="path7606-5-4-5" class="cls-1" d="M111.1,0A111,111,0,0,0,0,110.88v.1H0a111.09,111.09,0,0,0,111,111.1H377.7V174H111.1a63,63,0,0,1,0-125.9h14.8V0Zm44.5,0V48.1H422.3a63,63,0,0,1,63,63h0a63,63,0,0,1-63,63H407.4v48.1H533.3V174H513.6A110.9,110.9,0,0,0,422.3,0Z"/><text class="cls-2" transform="translate(12.59 339.02) scale(0.99 1)">Snow - C2</text></svg>